<svg width="80" height="40" viewBox="0 0 80 40" fill="none" xmlns="http://www.w3.org/2000/svg">
                    <path d="M10 30C4.47715 30 0 25.5228 0 20C0 14.4772 4.47715 10 10 10C10.9616 10 11.8909 10.1466 12.7692 10.4219C15.2021 4.30359 21.1099 0 28 0C36.8366 0 44 7.16344 44 16C44 16.6882 43.9441 17.3636 43.8361 18.0228C44.5384 17.6706 45.3257 17.4737 46.1579 17.4737C49.3851 17.4737 52 20.0886 52 23.3158C52 26.543 49.3851 29.1579 46.1579 29.1579C45.9199 29.1579 45.6857 29.1405 45.4561 29.1066C43.4063 34.5906 38.0418 38.4737 31.7895 38.4737C25.5371 38.4737 20.1726 34.5906 18.1229 29.1066C18.0796 29.1086 18.0362 29.1097 17.9927 29.1097C13.5812 29.1097 10 25.5285 10 21.1171C10 20.5908 10.053 20.0773 10.1544 19.5816C10.0522 19.5877 9.9494 19.5908 9.84615 19.5908C7.16822 19.5908 5 17.4226 5 14.7446C5 12.0667 7.16822 9.89846 9.84615 9.89846C9.89951 9.89846 9.95267 9.89948 10.0056 9.90152C8.74378 11.9712 8 14.4091 8 17C8 24.1797 13.8203 30 21 30H70C75.5228 30 80 34.4772 80 40H10V30Z" fill="white"></path>
                </svg>